<svg width="41" height="40" viewBox="0 0 41 40" fill="none" xmlns="http://www.w3.org/2000/svg">
<rect x="0.5" width="40" height="40" rx="20" fill="#8094BC" fill-opacity="0.4"/>
<path fill-rule="evenodd" clip-rule="evenodd" d="M17.6108 26.7941H23.3885C25.6487 26.7941 27.1666 25.1784 27.1666 22.7742V17.2257C27.1666 14.8215 25.6487 13.2058 23.3892 13.2058H17.6108C15.3512 13.2058 13.8333 14.8215 13.8333 17.2257V22.7742C13.8333 25.1784 15.3512 26.7941 17.6108 26.7941ZM18.1659 19.3205C17.2468 19.3205 16.5 18.5584 16.5 17.622C16.5 16.6856 17.2468 15.9235 18.1659 15.9235C19.0843 15.9235 19.8318 16.6856 19.8318 17.622C19.8318 18.5584 19.0843 19.3205 18.1659 19.3205ZM25.7139 21.9933C25.9371 22.5767 25.8211 23.2778 25.5825 23.8556C25.2996 24.5427 24.7579 25.0629 24.0754 25.2901C23.7724 25.3911 23.4547 25.4353 23.1376 25.4353H17.5191C16.96 25.4353 16.4652 25.2985 16.0596 25.044C15.8056 24.8842 15.7607 24.5153 15.949 24.2763C16.2641 23.8766 16.5752 23.4755 16.8889 23.071C17.4869 22.2969 17.8898 22.0725 18.3376 22.2696C18.5193 22.3509 18.7016 22.4729 18.8893 22.6019C19.3894 22.9483 20.0846 23.4244 21.0004 22.9076C21.627 22.5499 21.9905 21.9364 22.307 21.4021L22.3123 21.3931C22.3348 21.3556 22.357 21.3182 22.3791 21.2808L22.3792 21.2808C22.4855 21.1014 22.5905 20.9244 22.7092 20.7614C22.858 20.5574 23.4097 19.9193 24.1244 20.3737C24.5796 20.6597 24.9624 21.0468 25.372 21.4611C25.5282 21.6196 25.6394 21.7998 25.7139 21.9933Z" fill="#044491"/>
</svg>
